# xmcd
#
# Track frame offsets:
#	150
#	14780
#	28587
#	43145
#	59035
#	72625
#	91797
#	109520
#	122625
#	139000
#
# Disc length: 2012 seconds
#
# Revision: 0
# Processed by: cddbd v1.5PL3 Copyright (c) Steve Scherf et al.
# Submitted via: dBpowerAMP V4.0
#
DISCID=9007da0a
DTITLE=The Breeze - Yours For The Taking
DYEAR=1992
DGENRE=Country
TTITLE0=Heartbreak Hall Of Fame
TTITLE1=T.G.I.F.
TTITLE2=She's Leaving Looking Good
TTITLE3=I'm Your Man
TTITLE4=I'me Your Man
TTITLE5=We Won't Have To Say Goodbye
TTITLE6=If I Built You A Fire
TTITLE7=A Letter From Loretta
TTITLE8=Family
TTITLE9=Body Shake
EXTD=
EXTT0=
EXTT1=
EXTT2=
EXTT3=
EXTT4=
EXTT5=
EXTT6=
EXTT7=
EXTT8=
EXTT9=
PLAYORDER=
